<?xml version="1.0" encoding="UTF-8"?>
<svg version="1.1" xmlns="http://www.w3.org/2000/svg" width="36" height="31">
<path d="M0 0 C9.24 0 18.48 0 28 0 C28 2.31 28 4.62 28 7 C21.73 7 15.46 7 9 7 C9 11.95 9 16.9 9 22 C6.03 22 3.06 22 0 22 C0 14.74 0 7.48 0 0 Z " fill="#F2F2F2" transform="translate(4,9)"/>
<path d="M0 0 C9.24 0 18.48 0 28 0 C28 2.31 28 4.62 28 7 C18.76 7 9.52 7 0 7 C0 4.69 0 2.38 0 0 Z " fill="#F2F2F2" transform="translate(4,0)"/>
<path d="M0 0 C2.97 0 5.94 0 9 0 C9.66 1.32 10.32 2.64 11 4 C10.01 5.485 10.01 5.485 9 7 C6.8359375 7.29296875 6.8359375 7.29296875 4.375 7.1875 C3.55773437 7.16042969 2.74046875 7.13335938 1.8984375 7.10546875 C0.95871094 7.05326172 0.95871094 7.05326172 0 7 C0 4.69 0 2.38 0 0 Z " fill="#F9F9F9" transform="translate(4,0)"/>
</svg>
